inDegrees=no
num_controls=7
num_derivatives=13
num_iterations=91
num_multipliers=7
num_parameters=0
num_slacks=7
num_states=26
objective=0.409091
objective_accelerations=0.031769
objective_balance=0.006257
objective_effort=0.028055
objective_height=0.338036
objective_ligament=0.004974
solver_duration=1251.801415
status=Solve_Succeeded
success=true
DataType=double
version=3
OpenSimVersion=4.5
endheader
time	/jointset/ground_pelvis/pelvis_tilt/value	/jointset/ground_pelvis/pelvis_tx/value	/jointset/ground_pelvis/pelvis_ty/value	/jointset/hip_l/hip_flexion_l/value	/jointset/hip_l/hip_adduction_l/value	/jointset/hip_l/hip_rotation_l/value	/jointset/back/lumbar_extension/value	/jointset/patellofemoral_l/patellar_flexion_l/value	/jointset/knee_l/knee_flexion_l/value	/jointset/knee_l/knee_adduction_l/value	/jointset/knee_l/knee_rotation_l/value	/jointset/ankle_l/ankle_angle_l/value	/jointset/subtalar_l/subtalar_angle_l/value	/jointset/ground_pelvis/pelvis_tilt/speed	/jointset/ground_pelvis/pelvis_tx/speed	/jointset/ground_pelvis/pelvis_ty/speed	/jointset/hip_l/hip_flexion_l/speed	/jointset/hip_l/hip_adduction_l/speed	/jointset/hip_l/hip_rotation_l/speed	/jointset/back/lumbar_extension/speed	/jointset/patellofemoral_l/patellar_flexion_l/speed	/jointset/knee_l/knee_flexion_l/speed	/jointset/knee_l/knee_adduction_l/speed	/jointset/knee_l/knee_rotation_l/speed	/jointset/ankle_l/ankle_angle_l/speed	/jointset/subtalar_l/subtalar_angle_l/speed	/forceset/tau_hip_flexion_l	/forceset/tau_hip_adduction_l	/forceset/tau_hip_rotation_l	/forceset/tau_knee_flexion_l	/forceset/tau_ankle_angle_l	/forceset/tau_subtalar_angle_l	/forceset/tau_lumbar_extension	lambda_cid13_p0	lambda_cid13_p1	lambda_cid13_p2	lambda_cid13_p3	lambda_cid13_p4	lambda_cid13_p5	lambda_cid14_p0	/jointset/ground_pelvis/pelvis_tilt/accel	/jointset/ground_pelvis/pelvis_tx/accel	/jointset/ground_pelvis/pelvis_ty/accel	/jointset/hip_l/hip_flexion_l/accel	/jointset/hip_l/hip_adduction_l/accel	/jointset/hip_l/hip_rotation_l/accel	/jointset/back/lumbar_extension/accel	/jointset/patellofemoral_l/patellar_flexion_l/accel	/jointset/knee_l/knee_flexion_l/accel	/jointset/knee_l/knee_adduction_l/accel	/jointset/knee_l/knee_rotation_l/accel	/jointset/ankle_l/ankle_angle_l/accel	/jointset/subtalar_l/subtalar_angle_l/accel	gamma_cid13_p0	gamma_cid13_p1	gamma_cid13_p2	gamma_cid13_p3	gamma_cid13_p4	gamma_cid13_p5	gamma_cid14_p0
0	-0.1601563548782338	0.05857036218654067	0.8979983559494253	0.3774924667018715	-0.259142322941068	-0.2728766258858518	-0.01265067647494873	0.0322364824372075	0.03223648243721463	-0.1745324497927588	0.1744379092521185	-0.04231377076293093	-0.009267844461195048	0	0	0	0	0	0	0	0	0	0	0	0	0	0.1481882042593179	-0.07434271501191846	-0.05535098439323194	-0.3309585346245873	0.3697900501326714	-0.06332461413970879	-0.08622366962099254	75.67111546342981	7.973768894319944	5.498069097338148	-28.45430050136786	-600.0035840022585	-63.07707408068416	-39.0718097971257	-3.108166293738313	-1.276315910294695	-0.8078142425119439	9.113889623798032	-0.9880869931345662	2.543051969871015	-4.976861490833515	7.289484324469742	7.289484324468154	0.1115007375084122	0.008617958763723966	1.406260406905039	-0.6853276617420331	-3.023977181620572e-08	4.510194585355079e-08	3.675210051546293e-08	2.396718614431471e-08	-3.365869183153872e-08	-1.783874824515014e-08	-4.926239925203428e-09
0.01	-0.1603048765173074	0.05850613669291139	0.897958867422039	0.3779368310921093	-0.2591916924277342	-0.2727495405064868	-0.01289936485620331	0.03259321403895192	0.03259321403896275	-0.1745286752685843	0.1744358188575419	-0.04224711894819774	-0.009302919262613257	-0.02937952991648815	-0.01291414536366252	-0.007870724920864642	0.08847640860619235	-0.009854071466244238	0.02533008097760527	-0.04936038370361197	0.07111486372599135	0.07111486372597541	0.0007177586718186754	-0.0004159113227526433	0.01315323923264364	-0.007036591979269694	0.1348432174030466	-0.08361505939159736	-0.05188906783914434	-0.3089602474900128	0.3339234077419305	-0.04133041012810524	-0.07668796121745446	64.95297675931791	0.5660217988548344	6.373324614829504	-20.97765393459699	-600.2475249229856	-76.35519843803243	-39.08188657678181	-2.804128769555483	-1.30931605107879	-0.7726612651431792	8.655043044811803	-0.9811053864679961	2.514933347949846	-4.859032928393613	6.987769888208606	6.987769888207916	0.04635427662484765	-0.06637321703666904	1.243284033911481	-0.7160805345404961	-4.267678433385551e-08	6.398698314685917e-08	6.894139855143401e-08	2.613428272253665e-08	-8.418732693222312e-08	-9.288703265500498e-09	-1.089962119244994e-08
0.02	-0.160737449941329	0.05831069930531071	0.8978414797157903	0.3792540648815717	-0.2593390102616817	-0.2723717648800989	-0.01363033829814627	0.0336541507762768	0.03365415077627767	-0.1745188349887584	0.1744296338418795	-0.04205424907064444	-0.00940901109752852	-0.05681035699107307	-0.02624237879427892	-0.01557983577244223	0.174573879843666	-0.01958966945643589	0.05013804940499463	-0.09645701213799467	0.1408410271137749	0.1408410271137786	0.001213151127886724	-0.0008189242151811068	0.02524361256398745	-0.01420340669938197	0.121498230546799	-0.09288740377127765	-0.04842715128511197	-0.2869619603553996	0.2980567653512003	-0.01933620611649995	-0.06715225281391254	54.29514025841075	-6.851897501025644	7.249763804555015	-13.62633658123539	-599.5855108446046	-89.54543696497964	-39.11190514296656	-2.718425725357891	-1.359133523685273	-0.7754914286545296	8.638102150054255	-0.9643922979240507	2.438629459827848	-4.524110436987787	7.01174425682814	7.011744256833686	0.06702749435827451	0.01119764482854493	1.193687226645302	-0.7113722099104977	-5.511379685150531e-08	8.287202044016756e-08	1.011306965874051e-07	2.83013793007586e-08	-1.347159620329075e-07	-7.386582858508567e-10	-1.687300245969645e-08
0.03	-0.1614369178414118	0.05798120803796868	0.8976476855868807	0.3814209114016303	-0.2595824903826585	-0.271748993359221	-0.0148218964967999	0.03540455927204771	0.03540455927204928	-0.1745044574133391	0.1744196643428352	-0.04174456279438413	-0.009586557048020361	-0.08297023241590044	-0.03959367158689544	-0.02316085783944032	0.2584164681041079	-0.0290312060967054	0.0742846575982635	-0.1415918921978247	0.2089069829955484	0.208906982995544	0.001683406288984944	-0.001162802877133471	0.03663339261296063	-0.02124673316184094	0.1171653623805413	-0.08667356563375686	-0.0477781347847886	-0.2827355900922335	0.293774426959498	-0.02262515673677372	-0.06363093364721926	52.78537355591313	-5.29554832370042	7.157429774421163	-12.93864673727429	-599.825971573462	-85.67222906655769	-39.16111875622014	-2.547825679552988	-1.313791024386296	-0.7467149175563772	8.200485174304946	-0.9227791801441413	2.382923200743706	-4.468766481589628	6.653971295756124	6.653971295751694	0.04020432615006797	-0.05536722185014446	1.102582239300261	-0.6919794069185424	-6.684888741403475e-08	9.171324869324831e-08	1.104277018518301e-07	4.095140798366402e-08	-2.055003572592036e-07	1.046317880620632e-08	-1.886090468496695e-08
0.04	-0.1623945959414385	0.05752007106923378	0.8973786197729344	0.384414813406353	-0.259918134836651	-0.2708887064160792	-0.0164569214342725	0.03782561733501803	0.03782561733501864	-0.1744847413264873	0.1744066187371475	-0.0413227869485786	-0.009832769571637841	-0.1084523969810731	-0.05257151907285218	-0.03063417277975466	0.3399849767751875	-0.03802253605960768	0.09764113385822404	-0.1851503599020418	0.2749709405534888	0.2749709405534574	0.002280853416661837	-0.001434145544806779	0.04766152647301268	-0.02793672132449777	0.1128324942143051	-0.08045972749622964	-0.04712911828444927	-0.2785092198290545	0.2894920885678015	-0.02591410735704011	-0.06010961448051754	51.33232361011594	-3.746931520709859	7.063819597620443	-12.36798310474771	-599.2278828576722	-81.71267766566297	-39.22848237174903	-2.582883553427162	-1.284444462353119	-0.7539500033177745	8.183286232181768	-0.8743509624506135	2.280603073166183	-4.208827965865338	6.611344592061483	6.611344592063265	0.09246588767397834	0.02570484368434995	1.1213579888613	-0.6407045499500279	-7.856950535893286e-08	1.003473881001388e-07	1.192527010797283e-07	5.381757959656292e-08	-2.767023970241721e-07	2.171969202429253e-08	-2.07666320846297e-08
0.05	-0.1636036111364429	0.05693096970727245	0.8970352120869679	0.3882134445079928	-0.2603416245720894	-0.2697986927505553	-0.01851923198067779	0.04089809984603821	0.04089809984604234	-0.1744587485044648	0.1743913954162183	-0.04079230202587825	-0.01014425662283386	-0.1332013302865579	-0.06518996393907259	-0.038039245737172	0.4193531131628608	-0.04661907861770102	0.1202481712389356	-0.227033861162878	0.3392368471742254	0.339236847174212	0.002898801441179132	-0.001598959231014948	0.05838749307279274	-0.03431884710131717	0.1070016931669267	-0.07813073120892731	-0.04611928186455403	-0.2726002455033955	0.2816173547305275	-0.02408193449061739	-0.0555205383982145	48.91741323079015	-4.146310576602085	7.157759785869159	-11.21431023367354	-598.7601645180764	-81.53915468492318	-39.31270522901431	-2.398506031680657	-1.24171522369829	-0.7326240563418923	7.755347572118684	-0.8438705125601818	2.233723148897081	-4.136427974106353	6.290910694245392	6.290910694247147	0.04364859793119866	-0.03585616026353786	1.041015896492746	-0.6307187272991163	-8.808122778203775e-08	1.021782824097483e-07	1.343606450940697e-07	6.22176372690365e-08	-3.262954045272867e-07	2.336256967442596e-08	-2.372629213479176e-08
